<svg width="32" height="72" viewBox="0 0 32 72" fill="none" xmlns="http://www.w3.org/2000/svg">
<mask id="path-1-inside-1_22_105" fill="white">
<path fill-rule="evenodd" clip-rule="evenodd" d="M22.7502 10.5C22.7502 14.0899 19.8401 17 16.2502 17C12.6604 17 9.75024 14.0899 9.75024 10.5C9.75024 6.91015 12.6604 4 16.2502 4C19.8401 4 22.7502 6.91015 22.7502 10.5ZM9.75003 27.6288L4.74977 36.2894C4.33554 37.0069 3.41815 37.2527 2.7007 36.8385C1.98325 36.4242 1.73744 35.5069 2.15166 34.7894L9.65174 21.799C10.0181 21.1646 10.7779 20.899 11.4449 21.1325C11.6976 21.0466 11.9684 21 12.25 21H20.25C20.5317 21 20.8024 21.0466 21.055 21.1324C21.7221 20.899 22.4818 21.1646 22.8481 21.799L30.3481 34.7894C30.7623 35.5069 30.5165 36.4242 29.7991 36.8385C29.0816 37.2527 28.1642 37.0069 27.75 36.2894L22.75 27.6292V45.4634C22.7503 45.4756 22.7505 45.4878 22.7505 45.5V67.5C22.7505 68.3284 22.0789 69 21.2505 69C20.422 69 19.7505 68.3284 19.7505 67.5V49H12.75V67.5C12.75 68.3284 12.0784 69 11.25 69C10.4216 69 9.74998 68.3284 9.74998 67.5V45.5L9.75003 45.4873V27.6288Z"/>
</mask>
<path d="M4.74977 36.2894L4.31676 36.0394H4.31676L4.74977 36.2894ZM9.75003 27.6288H10.25V25.7628L9.31702 27.3788L9.75003 27.6288ZM2.7007 36.8385L2.4507 37.2715H2.4507L2.7007 36.8385ZM2.15166 34.7894L1.71865 34.5394H1.71865L2.15166 34.7894ZM9.65174 21.799L9.21873 21.549L9.65174 21.799ZM11.4449 21.1325L11.2797 21.6044L11.4425 21.6614L11.6059 21.6059L11.4449 21.1325ZM21.055 21.1324L20.8941 21.6058L21.0574 21.6613L21.2202 21.6044L21.055 21.1324ZM22.8481 21.799L23.2811 21.549L22.8481 21.799ZM30.3481 34.7894L30.7811 34.5394L30.3481 34.7894ZM29.7991 36.8385L29.5491 36.4054H29.5491L29.7991 36.8385ZM27.75 36.2894L28.183 36.0394H28.183L27.75 36.2894ZM22.75 27.6292L23.183 27.3792L22.25 25.7631V27.6292H22.75ZM22.75 45.4634H22.2499L22.2502 45.4754L22.75 45.4634ZM19.7505 49H20.2505V48.5H19.7505V49ZM12.75 49V48.5H12.25V49H12.75ZM9.74998 45.5L9.24998 45.4979V45.5H9.74998ZM9.75003 45.4873L10.25 45.4894V45.4873H9.75003ZM16.2502 16.5C15.9842 16.5 15.7224 16.4827 15.466 16.4493L15.3366 17.4409C15.6359 17.4799 15.9408 17.5 16.2502 17.5V16.5ZM13.9537 16.0449C13.4661 15.8427 13.0108 15.578 12.5978 15.2606L11.9885 16.0536C12.47 16.4236 13.0012 16.7325 13.5706 16.9686L13.9537 16.0449ZM11.4896 14.1524C11.1722 13.7394 10.9075 13.2841 10.7053 12.7966L9.7816 13.1796C10.0177 13.749 10.3267 14.2802 10.6967 14.7618L11.4896 14.1524ZM10.301 11.2843C10.2675 11.0278 10.2502 10.7661 10.2502 10.5H9.25024C9.25024 10.8094 9.27035 11.1144 9.30938 11.4136L10.301 11.2843ZM10.2502 10.5C10.2502 10.2339 10.2675 9.97218 10.301 9.71571L9.30938 9.58637C9.27035 9.88561 9.25024 10.1906 9.25024 10.5H10.2502ZM10.7053 8.20341C10.9075 7.71589 11.1722 7.26059 11.4896 6.84757L10.6967 6.23824C10.3267 6.71976 10.0177 7.251 9.7816 7.82035L10.7053 8.20341ZM12.5978 5.73936C13.0108 5.42197 13.4661 5.15725 13.9536 4.95509L13.5706 4.03136C13.0012 4.26746 12.47 4.57641 11.9885 4.94644L12.5978 5.73936ZM15.466 4.55074C15.7224 4.51729 15.9842 4.5 16.2502 4.5V3.5C15.9408 3.5 15.6359 3.52011 15.3366 3.55914L15.466 4.55074ZM16.2502 4.5C16.5163 4.5 16.7781 4.51729 17.0345 4.55074L17.1639 3.55914C16.8646 3.52011 16.5597 3.5 16.2502 3.5V4.5ZM18.5468 4.95509C19.0344 5.15725 19.4896 5.42197 19.9027 5.73936L20.512 4.94644C20.0305 4.57641 19.4992 4.26746 18.9299 4.03136L18.5468 4.95509ZM21.0109 6.84757C21.3283 7.26059 21.593 7.71589 21.7952 8.20341L22.7189 7.82035C22.4828 7.251 22.1738 6.71976 21.8038 6.23824L21.0109 6.84757ZM22.1995 9.71571C22.233 9.97218 22.2502 10.2339 22.2502 10.5H23.2502C23.2502 10.1906 23.2301 9.88561 23.1911 9.58637L22.1995 9.71571ZM22.2502 10.5C22.2502 10.7661 22.233 11.0278 22.1995 11.2843L23.1911 11.4136C23.2301 11.1144 23.2502 10.8094 23.2502 10.5H22.2502ZM21.7952 12.7966C21.593 13.2841 21.3283 13.7394 21.0109 14.1524L21.8038 14.7618C22.1738 14.2802 22.4828 13.749 22.7189 13.1796L21.7952 12.7966ZM19.9027 15.2606C19.4897 15.578 19.0344 15.8427 18.5468 16.0449L18.9299 16.9686C19.4992 16.7325 20.0305 16.4236 20.512 16.0536L19.9027 15.2606ZM17.0345 16.4493C16.7781 16.4827 16.5163 16.5 16.2502 16.5V17.5C16.5597 17.5 16.8646 17.4799 17.1639 17.4409L17.0345 16.4493ZM4.31676 36.0394C4.2485 36.1576 4.16058 36.2558 4.05988 36.333L4.66832 37.1266C4.87151 36.9708 5.04765 36.7735 5.18278 36.5394L4.31676 36.0394ZM3.31993 36.5312C3.19412 36.5147 3.06892 36.4737 2.95069 36.4054L2.4507 37.2715C2.68476 37.4066 2.93595 37.4894 3.18981 37.5227L3.31993 36.5312ZM2.9507 36.4054C2.83247 36.3372 2.73435 36.2493 2.65714 36.1486L1.86355 36.757C2.01934 36.9602 2.21664 37.1363 2.4507 37.2715L2.9507 36.4054ZM2.45888 35.4086C2.47539 35.2828 2.51641 35.1576 2.58467 35.0394L1.71865 34.5394C1.58351 34.7735 1.5007 35.0247 1.46739 35.2785L2.45888 35.4086ZM2.58467 35.0394L3.05342 34.2275L2.1874 33.7275L1.71865 34.5394L2.58467 35.0394ZM3.99093 32.6037L4.92845 30.9799L4.06242 30.4799L3.12491 32.1037L3.99093 32.6037ZM5.86596 29.3561L6.80347 27.7323L5.93744 27.2323L4.99993 28.8561L5.86596 29.3561ZM7.74098 26.1085L8.67849 24.4847L7.81247 23.9847L6.87496 25.6085L7.74098 26.1085ZM9.616 22.8609L10.0848 22.049L9.21873 21.549L8.74998 22.3609L9.616 22.8609ZM10.0848 22.049C10.1447 21.9452 10.2197 21.857 10.3052 21.7849L9.65985 21.0209C9.48743 21.1666 9.33727 21.3437 9.21873 21.549L10.0848 22.049ZM10.9412 21.5489C11.0548 21.5476 11.1692 21.5657 11.2797 21.6044L11.6101 20.6605C11.3877 20.5827 11.1576 20.5464 10.9302 20.5489L10.9412 21.5489ZM11.6059 21.6059C11.6572 21.5884 11.7096 21.573 11.7628 21.5597L11.5201 20.5895C11.4401 20.6096 11.3613 20.6328 11.284 20.6591L11.6059 21.6059ZM12.0857 21.5066C12.1398 21.5022 12.1946 21.5 12.25 21.5V20.5C12.1676 20.5 12.0859 20.5033 12.005 20.5099L12.0857 21.5066ZM12.25 21.5H13.25V20.5H12.25V21.5ZM15.25 21.5H17.25V20.5H15.25V21.5ZM19.25 21.5H20.25V20.5H19.25V21.5ZM20.25 21.5C20.3054 21.5 20.3602 21.5022 20.4143 21.5066L20.4951 20.5099C20.4142 20.5033 20.3324 20.5 20.25 20.5V21.5ZM20.7373 21.5596C20.7904 21.5729 20.8427 21.5884 20.8941 21.6058L21.216 20.659C21.1386 20.6328 21.0599 20.6095 20.9799 20.5895L20.7373 21.5596ZM21.2202 21.6044C21.3308 21.5657 21.4452 21.5476 21.5587 21.5488L21.5698 20.5489C21.3424 20.5464 21.1123 20.5827 20.8899 20.6605L21.2202 21.6044ZM22.1947 21.7849C22.2801 21.857 22.3552 21.9452 22.4151 22.049L23.2811 21.549C23.1626 21.3437 23.0124 21.1666 22.84 21.021L22.1947 21.7849ZM22.4151 22.049L22.8838 22.8609L23.7499 22.3609L23.2811 21.549L22.4151 22.049ZM23.8213 24.4847L24.7588 26.1085L25.6249 25.6085L24.6874 23.9847L23.8213 24.4847ZM25.6963 27.7323L26.6338 29.3561L27.4999 28.8561L26.5624 27.2323L25.6963 27.7323ZM27.5713 30.9799L28.5088 32.6037L29.3749 32.1037L28.4374 30.4799L27.5713 30.9799ZM29.4463 34.2275L29.9151 35.0394L30.7811 34.5394L30.3124 33.7275L29.4463 34.2275ZM29.9151 35.0394C29.9834 35.1576 30.0244 35.2828 30.0409 35.4086L31.0324 35.2785C30.9991 35.0247 30.9163 34.7735 30.7811 34.5394L29.9151 35.0394ZM29.8426 36.1486C29.7654 36.2493 29.6673 36.3372 29.5491 36.4054L30.0491 37.2715C30.2831 37.1363 30.4804 36.9602 30.6362 36.757L29.8426 36.1486ZM29.5491 36.4054C29.4308 36.4737 29.3057 36.5147 29.1798 36.5312L29.31 37.5227C29.5638 37.4894 29.815 37.4066 30.0491 37.2715L29.5491 36.4054ZM28.4399 36.333C28.3392 36.2558 28.2513 36.1576 28.183 36.0394L27.317 36.5394C27.4521 36.7735 27.6283 36.9708 27.8315 37.1266L28.4399 36.333ZM28.183 36.0394L27.558 34.9569L26.692 35.4569L27.317 36.5394L28.183 36.0394ZM26.308 32.7918L25.058 30.6268L24.192 31.1268L25.442 33.2918L26.308 32.7918ZM23.808 28.4617L23.183 27.3792L22.317 27.8792L22.942 28.9617L23.808 28.4617ZM22.25 27.6292V28.7438H23.25V27.6292H22.25ZM22.25 30.9731V33.2024H23.25V30.9731H22.25ZM22.25 35.4317V37.6609H23.25V35.4317H22.25ZM22.25 39.8902V42.1195H23.25V39.8902H22.25ZM22.25 44.3488V45.4634H23.25V44.3488H22.25ZM22.2502 45.4754C22.2504 45.4836 22.2505 45.4918 22.2505 45.5H23.2505C23.2505 45.4838 23.2503 45.4676 23.2499 45.4515L22.2502 45.4754ZM22.2505 45.5V46.4167H23.2505V45.5H22.2505ZM22.2505 48.25V50.0833H23.2505V48.25H22.2505ZM22.2505 51.9167V53.75H23.2505V51.9167H22.2505ZM22.2505 55.5833V57.4167H23.2505V55.5833H22.2505ZM22.2505 59.25V61.0833H23.2505V59.25H22.2505ZM22.2505 62.9167V64.75H23.2505V62.9167H22.2505ZM22.2505 66.5833V67.5H23.2505V66.5833H22.2505ZM22.2505 67.5C22.2505 67.6365 22.2234 67.7654 22.1748 67.8827L23.0985 68.2657C23.1966 68.0292 23.2505 67.7703 23.2505 67.5H22.2505ZM21.6331 68.4243C21.5159 68.4729 21.387 68.5 21.2505 68.5V69.5C21.5207 69.5 21.7797 69.4461 22.0162 69.348L21.6331 68.4243ZM21.2505 68.5C21.114 68.5 20.985 68.4729 20.8678 68.4243L20.4848 69.348C20.7213 69.4461 20.9802 69.5 21.2505 69.5V68.5ZM20.3262 67.8827C20.2775 67.7654 20.2505 67.6365 20.2505 67.5H19.2505C19.2505 67.7703 19.3043 68.0292 19.4024 68.2657L20.3262 67.8827ZM20.2505 67.5V66.575H19.2505V67.5H20.2505ZM20.2505 64.725V62.875H19.2505V64.725H20.2505ZM20.2505 61.025V59.175H19.2505V61.025H20.2505ZM20.2505 57.325V55.475H19.2505V57.325H20.2505ZM20.2505 53.625V51.775H19.2505V53.625H20.2505ZM20.2505 49.925V49H19.2505V49.925H20.2505ZM19.7505 48.5H18.8754V49.5H19.7505V48.5ZM17.1253 48.5H15.3752V49.5H17.1253V48.5ZM13.625 48.5H12.75V49.5H13.625V48.5ZM12.25 49V49.925H13.25V49H12.25ZM12.25 51.775V53.625H13.25V51.775H12.25ZM12.25 55.475V57.325H13.25V55.475H12.25ZM12.25 59.175V61.025H13.25V59.175H12.25ZM12.25 62.875V64.725H13.25V62.875H12.25ZM12.25 66.575V67.5H13.25V66.575H12.25ZM12.25 67.5C12.25 67.6365 12.2229 67.7654 12.1743 67.8827L13.098 68.2657C13.1961 68.0292 13.25 67.7703 13.25 67.5H12.25ZM11.6326 68.4243C11.5154 68.4729 11.3865 68.5 11.25 68.5V69.5C11.5202 69.5 11.7792 69.4461 12.0157 69.348L11.6326 68.4243ZM11.25 68.5C11.1135 68.5 10.9845 68.4729 10.8673 68.4243L10.4843 69.348C10.7208 69.4461 10.9797 69.5 11.25 69.5V68.5ZM10.3257 67.8827C10.2771 67.7654 10.25 67.6365 10.25 67.5H9.24998C9.24998 67.7703 9.30386 68.0292 9.40194 68.2657L10.3257 67.8827ZM10.25 67.5V66.5833H9.24998V67.5H10.25ZM10.25 64.75V62.9167H9.24998V64.75H10.25ZM10.25 61.0833V59.25H9.24998V61.0833H10.25ZM10.25 57.4167V55.5833H9.24998V57.4167H10.25ZM10.25 53.75V51.9167H9.24998V53.75H10.25ZM10.25 50.0833V48.25H9.24998V50.0833H10.25ZM10.25 46.4167V45.5H9.24998V46.4167H10.25ZM10.25 45.5021L10.25 45.4989L9.25 45.4948L9.24998 45.4979L10.25 45.5021ZM10.25 45.4926L10.25 45.4894L9.25004 45.4853L9.25002 45.4884L10.25 45.4926ZM10.25 45.4873V44.3712H9.25003V45.4873H10.25ZM10.25 42.1389V39.9065H9.25003V42.1389H10.25ZM10.25 37.6742V35.4419H9.25003V37.6742H10.25ZM10.25 33.2096V30.9773H9.25003V33.2096H10.25ZM10.25 28.745V27.6288H9.25003V28.745H10.25ZM9.31702 27.3788L8.90033 28.1005L9.76636 28.6005L10.183 27.8788L9.31702 27.3788ZM8.06696 29.544L7.23358 30.9874L8.0996 31.4874L8.93298 30.044L8.06696 29.544ZM6.4002 32.4308L5.56682 33.8743L6.43284 34.3743L7.26622 32.9308L6.4002 32.4308ZM4.73344 35.3177L4.31676 36.0394L5.18278 36.5394L5.59947 35.8177L4.73344 35.3177ZM4.74977 36.2894L3.88374 35.7894L3.88374 35.7894L4.74977 36.2894ZM9.75003 27.6288H10.75V23.8968L8.88401 27.1288L9.75003 27.6288ZM2.7007 36.8385L2.2007 37.7045H2.2007L2.7007 36.8385ZM2.15166 34.7894L1.28563 34.2894L1.28563 34.2894L2.15166 34.7894ZM9.65174 21.799L8.78572 21.299L9.65174 21.799ZM11.4449 21.1325L11.1145 22.0763L11.4402 22.1903L11.7668 22.0793L11.4449 21.1325ZM21.055 21.1324L20.7332 22.0792L21.0598 22.1902L21.3854 22.0763L21.055 21.1324ZM22.8481 21.799L23.7141 21.299L22.8481 21.799ZM30.3481 34.7894L31.2141 34.2894L30.3481 34.7894ZM29.7991 36.8385L29.2991 35.9724L29.2991 35.9724L29.7991 36.8385ZM27.75 36.2894L28.6161 35.7894V35.7894L27.75 36.2894ZM22.75 27.6292L23.6161 27.1292L21.75 23.8971V27.6292H22.75ZM22.75 45.4634H21.75V45.4754L21.7503 45.4873L22.75 45.4634ZM19.7505 49H20.7505V48H19.7505V49ZM12.75 49V48H11.75V49H12.75ZM9.74998 45.5L8.74998 45.4959V45.5H9.74998ZM9.75003 45.4873L10.75 45.4915V45.4873H9.75003ZM16.2502 16C16.0059 16 15.7657 15.9841 15.5306 15.9535L15.2719 17.9367C15.5926 17.9785 15.9191 18 16.2502 18V16ZM14.1452 15.5831C13.6986 15.3979 13.2813 15.1553 12.9025 14.8642L11.6838 16.45C12.1996 16.8464 12.7688 17.1774 13.3791 17.4305L14.1452 15.5831ZM11.8861 13.8478C11.595 13.469 11.3524 13.0517 11.1672 12.6051L9.31974 13.3712C9.57281 13.9815 9.90388 14.5507 10.3002 15.0664L11.8861 13.8478ZM10.7968 11.2196C10.7661 10.9845 10.7502 10.7444 10.7502 10.5H8.75024C8.75024 10.8311 8.77176 11.1577 8.81358 11.4783L10.7968 11.2196ZM10.7502 10.5C10.7502 10.2556 10.7661 10.0155 10.7968 9.78039L8.81358 9.52169C8.77176 9.84232 8.75024 10.1689 8.75024 10.5H10.7502ZM11.1672 8.39493C11.3524 7.94834 11.595 7.53101 11.8861 7.15223L10.3002 5.93358C9.90388 6.44935 9.57281 7.01855 9.31974 7.62883L11.1672 8.39493ZM12.9025 6.13582C13.2813 5.84475 13.6986 5.60214 14.1452 5.41695L13.3791 3.5695C12.7688 3.82257 12.1996 4.15363 11.6838 4.54998L12.9025 6.13582ZM15.5306 5.04654C15.7657 5.01588 16.0059 5 16.2502 5V3C15.9191 3 15.5926 3.02152 15.2719 3.06334L15.5306 5.04654ZM16.2502 5C16.4946 5 16.7348 5.01588 16.9699 5.04654L17.2285 3.06334C16.9079 3.02152 16.5813 3 16.2502 3V5ZM18.3553 5.41695C18.8019 5.60214 19.2192 5.84475 19.598 6.13582L20.8167 4.54998C20.3009 4.15363 19.7317 3.82257 19.1214 3.5695L18.3553 5.41695ZM20.6144 7.15223C20.9055 7.53101 21.1481 7.94834 21.3333 8.39493L23.1807 7.62882C22.9277 7.01855 22.5966 6.44935 22.2003 5.93358L20.6144 7.15223ZM21.7037 9.78038C21.7344 10.0155 21.7502 10.2556 21.7502 10.5H23.7502C23.7502 10.1689 23.7287 9.84232 23.6869 9.52169L21.7037 9.78038ZM21.7502 10.5C21.7502 10.7444 21.7344 10.9845 21.7037 11.2196L23.6869 11.4783C23.7287 11.1577 23.7502 10.8311 23.7502 10.5H21.7502ZM21.3333 12.6051C21.1481 13.0517 20.9055 13.469 20.6144 13.8478L22.2003 15.0664C22.5966 14.5507 22.9277 13.9815 23.1807 13.3712L21.3333 12.6051ZM19.598 14.8642C19.2192 15.1553 18.8019 15.3979 18.3553 15.5831L19.1214 17.4305C19.7317 17.1774 20.3009 16.8464 20.8167 16.45L19.598 14.8642ZM16.9699 15.9535C16.7348 15.9841 16.4946 16 16.2502 16V18C16.5813 18 16.9079 17.9785 17.2286 17.9367L16.9699 15.9535ZM3.88374 35.7894C3.84892 35.8497 3.80512 35.8982 3.75566 35.9362L4.97254 37.5234C5.22698 37.3283 5.44722 37.0814 5.61579 36.7894L3.88374 35.7894ZM3.38499 36.0355C3.3232 36.0274 3.261 36.0072 3.20069 35.9724L2.2007 37.7045C2.49268 37.8731 2.80686 37.9768 3.12475 38.0185L3.38499 36.0355ZM3.20069 35.9724C3.14038 35.9376 3.09186 35.8938 3.05394 35.8443L1.46675 37.0612C1.66183 37.3157 1.90873 37.5359 2.2007 37.7045L3.20069 35.9724ZM2.95463 35.4737C2.96274 35.4119 2.98286 35.3497 3.01768 35.2894L1.28563 34.2894C1.11706 34.5814 1.01336 34.8956 0.971637 35.2134L2.95463 35.4737ZM3.01768 35.2894L3.48644 34.4775L1.75439 33.4775L1.28563 34.2894L3.01768 35.2894ZM4.42395 32.8537L5.36146 31.2299L3.62941 30.2299L2.6919 31.8537L4.42395 32.8537ZM6.29897 29.6061L7.23648 27.9823L5.50443 26.9823L4.56692 28.6061L6.29897 29.6061ZM8.17399 26.3585L9.1115 24.7347L7.37946 23.7347L6.44194 25.3585L8.17399 26.3585ZM10.049 23.1109L10.5178 22.2991L8.78572 21.299L8.31697 22.1109L10.049 23.1109ZM10.5178 22.2991C10.5484 22.246 10.5859 22.2022 10.6278 22.1668L9.3372 20.639C9.12128 20.8214 8.93356 21.043 8.78572 21.299L10.5178 22.2991ZM10.9467 22.0488C11.0033 22.0482 11.0599 22.0572 11.1145 22.0763L11.7753 20.1886C11.497 20.0912 11.209 20.0458 10.9247 20.0489L10.9467 22.0488ZM11.7668 22.0793C11.8052 22.0662 11.8443 22.0547 11.8841 22.0447L11.3988 20.1045C11.3053 20.1279 11.2134 20.155 11.1231 20.1857L11.7668 22.0793ZM12.1261 22.005C12.1668 22.0017 12.2081 22 12.25 22V20C12.1541 20 12.0589 20.0039 11.9646 20.0115L12.1261 22.005ZM12.25 22H13.25V20H12.25V22ZM15.25 22H17.25V20H15.25V22ZM19.25 22H20.25V20H19.25V22ZM20.25 22C20.292 22 20.3333 22.0017 20.3739 22.005L20.5354 20.0115C20.4411 20.0039 20.3459 20 20.25 20V22ZM20.6159 22.0447C20.6557 22.0546 20.6948 22.0662 20.7332 22.0792L21.3769 20.1856C21.2866 20.1549 21.1946 20.1278 21.1012 20.1045L20.6159 22.0447ZM21.3854 22.0763C21.44 22.0572 21.4966 22.0482 21.5532 22.0488L21.5753 20.0489C21.291 20.0458 21.003 20.0912 20.7247 20.1886L21.3854 22.0763ZM21.8721 22.1668C21.914 22.2022 21.9514 22.246 21.9821 22.299L23.7141 21.299C23.5663 21.043 23.3786 20.8214 23.1627 20.639L21.8721 22.1668ZM21.9821 22.299L22.4508 23.1109L24.1829 22.1109L23.7141 21.299L21.9821 22.299ZM23.3883 24.7347L24.3258 26.3585L26.0579 25.3585L25.1204 23.7347L23.3883 24.7347ZM25.2633 27.9823L26.2008 29.6061L27.9329 28.6061L26.9954 26.9823L25.2633 27.9823ZM27.1383 31.2299L28.0758 32.8537L29.8079 31.8537L28.8704 30.2299L27.1383 31.2299ZM29.0133 34.4775L29.4821 35.2894L31.2141 34.2894L30.7454 33.4775L29.0133 34.4775ZM29.4821 35.2894C29.5169 35.3497 29.537 35.4119 29.5451 35.4737L31.5281 35.2135C31.4864 34.8956 31.3827 34.5814 31.2141 34.2894L29.4821 35.2894ZM29.4458 35.8443C29.4079 35.8938 29.3594 35.9376 29.2991 35.9724L30.2991 37.7045C30.591 37.5359 30.8379 37.3157 31.033 37.0612L29.4458 35.8443ZM29.2991 35.9724C29.2388 36.0073 29.1766 36.0274 29.1148 36.0355L29.375 38.0185C29.6929 37.9767 30.0071 37.873 30.2991 37.7045L29.2991 35.9724ZM28.7441 35.9362C28.6947 35.8982 28.6509 35.8497 28.6161 35.7894L26.884 36.7894C27.0526 37.0814 27.2728 37.3283 27.5272 37.5234L28.7441 35.9362ZM28.6161 35.7894L27.9911 34.7069L26.259 35.7069L26.884 36.7894L28.6161 35.7894ZM26.7411 32.5418L25.4911 30.3768L23.759 31.3768L25.009 33.5418L26.7411 32.5418ZM24.2411 28.2117L23.6161 27.1292L21.884 28.1292L22.509 29.2117L24.2411 28.2117ZM21.75 27.6292V28.7438H23.75V27.6292H21.75ZM21.75 30.9731V33.2024H23.75V30.9731H21.75ZM21.75 35.4317V37.6609H23.75V35.4317H21.75ZM21.75 39.8902V42.1195H23.75V39.8902H21.75ZM21.75 44.3488V45.4634H23.75V44.3488H21.75ZM21.7503 45.4873C21.7504 45.4916 21.7505 45.4958 21.7505 45.5H23.7505C23.7505 45.4798 23.7502 45.4596 23.7497 45.4396L21.7503 45.4873ZM21.7505 45.5V46.4167H23.7505V45.5H21.7505ZM21.7505 48.25V50.0833H23.7505V48.25H21.7505ZM21.7505 51.9167V53.75H23.7505V51.9167H21.7505ZM21.7505 55.5833V57.4167H23.7505V55.5833H21.7505ZM21.7505 59.25V61.0833H23.7505V59.25H21.7505ZM21.7505 62.9167V64.75H23.7505V62.9167H21.7505ZM21.7505 66.5833V67.5H23.7505V66.5833H21.7505ZM21.7505 67.5C21.7505 67.5696 21.7368 67.6336 21.7129 67.6911L23.5604 68.4572C23.6832 68.1611 23.7505 67.8371 23.7505 67.5H21.7505ZM21.4416 67.9625C21.384 67.9863 21.3201 68 21.2505 68V70C21.5876 70 21.9115 69.9327 22.2077 69.8099L21.4416 67.9625ZM21.2505 68C21.1808 68 21.1169 67.9863 21.0593 67.9625L20.2932 69.8099C20.5894 69.9327 20.9133 70 21.2505 70V68ZM20.788 67.6911C20.7641 67.6336 20.7505 67.5696 20.7505 67.5H18.7505C18.7505 67.8371 18.8178 68.1611 18.9406 68.4572L20.788 67.6911ZM20.7505 67.5V66.575H18.7505V67.5H20.7505ZM20.7505 64.725V62.875H18.7505V64.725H20.7505ZM20.7505 61.025V59.175H18.7505V61.025H20.7505ZM20.7505 57.325V55.475H18.7505V57.325H20.7505ZM20.7505 53.625V51.775H18.7505V53.625H20.7505ZM20.7505 49.925V49H18.7505V49.925H20.7505ZM19.7505 48H18.8754V50H19.7505V48ZM17.1253 48H15.3752V50H17.1253V48ZM13.625 48H12.75V50H13.625V48ZM11.75 49V49.925H13.75V49H11.75ZM11.75 51.775V53.625H13.75V51.775H11.75ZM11.75 55.475V57.325H13.75V55.475H11.75ZM11.75 59.175V61.025H13.75V59.175H11.75ZM11.75 62.875V64.725H13.75V62.875H11.75ZM11.75 66.575V67.5H13.75V66.575H11.75ZM11.75 67.5C11.75 67.5696 11.7363 67.6336 11.7124 67.6911L13.5599 68.4572C13.6827 68.1611 13.75 67.8371 13.75 67.5H11.75ZM11.4411 67.9625C11.3835 67.9863 11.3196 68 11.25 68V70C11.5871 70 11.9111 69.9327 12.2072 69.8099L11.4411 67.9625ZM11.25 68C11.1803 68 11.1164 67.9863 11.0589 67.9625L10.2927 69.8099C10.5889 69.9327 10.9128 70 11.25 70V68ZM10.7875 67.6911C10.7637 67.6336 10.75 67.5696 10.75 67.5H8.74998C8.74998 67.8371 8.81726 68.1611 8.94007 68.4572L10.7875 67.6911ZM10.75 67.5V66.5833H8.74998V67.5H10.75ZM10.75 64.75V62.9167H8.74998V64.75H10.75ZM10.75 61.0833V59.25H8.74998V61.0833H10.75ZM10.75 57.4167V55.5833H8.74998V57.4167H10.75ZM10.75 53.75V51.9167H8.74998V53.75H10.75ZM10.75 50.0833V48.25H8.74998V50.0833H10.75ZM10.75 46.4167V45.5H8.74998V46.4167H10.75ZM10.75 45.5041L10.75 45.501L8.75 45.4927L8.74999 45.4959L10.75 45.5041ZM10.75 45.4946L10.75 45.4915L8.75004 45.4832L8.75003 45.4864L10.75 45.4946ZM10.75 45.4873V44.3712H8.75003V45.4873H10.75ZM10.75 42.1389V39.9065H8.75003V42.1389H10.75ZM10.75 37.6742V35.4419H8.75003V37.6742H10.75ZM10.75 33.2096V30.9773H8.75003V33.2096H10.75ZM10.75 28.745V27.6288H8.75003V28.745H10.75ZM8.88401 27.1288L8.46732 27.8505L10.1994 28.8505L10.6161 28.1288L8.88401 27.1288ZM7.63394 29.294L6.80057 30.7374L8.53261 31.7374L9.36599 30.294L7.63394 29.294ZM5.96719 32.1808L5.13381 33.6243L6.86586 34.6243L7.69923 33.1808L5.96719 32.1808ZM4.30043 35.0677L3.88374 35.7894L5.61579 36.7894L6.03248 36.0677L4.30043 35.0677Z" fill="black" mask="url(#path-1-inside-1_22_105)"/>
<path fill-rule="evenodd" clip-rule="evenodd" d="M8.75049 22.5C8.75049 21.1193 9.86978 20 11.2505 20H21.2505C22.6312 20 23.7505 21.1193 23.7505 22.5V47.5V67.5C23.7505 68.8807 22.6312 70 21.2505 70C19.8698 70 18.7505 68.8807 18.7505 67.5V50H13.7505V67.5C13.7505 68.8807 12.6312 70 11.2505 70C9.86978 70 8.75049 68.8807 8.75049 67.5V47.5V22.5Z" fill="#D9D9D9"/>
</svg>
